<?xml version="1.0" encoding="UTF-8"?>
<svg id="Laag_2" data-name="Laag 2" xmlns="http://www.w3.org/2000/svg" viewBox="0 0 457.17 172.73">
  <defs>
    <style>
      .cls-1 {
        fill: #fff;
      }
    </style>
  </defs>
  <g id="Laag_1-2" data-name="Laag 1">
    <path d="M79.03,0C50.24,0,22.58,9.6,0,26.53v124.74c19.76,13.55,44.03,21.45,72.25,21.45s52.5-7.9,72.25-21.45V21.44C126.44,6.77,104.43,0,79.03,0Z"/>
    <path d="M202.01,83.48v43.15h-16.47v-43.15h-11.42v-11.9l11.42-1.2v-18.87c7.81-5.89,17.19-9.01,26.2-9.01,6.13,0,10.94,.84,15.15,2.28v12.62c-3.73-1.08-7.57-1.68-11.54-1.68-5.53,0-10.1,1.44-13.34,3.73v10.94h24.64v13.1h-24.64Zm50.85-41.83v13.7h-17.79v-13.7h17.79Zm-17.07,84.98v-62.02h16.47v62.02h-16.47Z"/>
    <path d="M298.76,128.43c-10.82,0-21.76-2.88-31.85-9.26V44.29h16.47v26.56c6.97-5.53,14.18-8.05,22.24-8.05,9.5,0,17.67,2.88,25,9.26v47.12c-10.22,6.37-21.03,9.26-31.85,9.26Zm1.44-51.32c-6.13,0-12.02,2.04-16.83,5.65v26.56c4.21,2.89,9.38,4.57,15.39,4.57s11.18-1.68,15.39-4.57v-27.65c-3.85-3.12-8.53-4.57-13.94-4.57Z"/>
    <path d="M404.89,72.06v27.52h-44.95v10.34c5.77,3.12,11.9,4.33,20.07,4.33,8.77,0,16.95-1.32,24.64-3.85v13.94c-8.17,2.64-16.47,4.09-26.2,4.09-12.86,0-25.48-3.12-34.38-9.38v-47c9.5-6.13,18.75-9.26,30.41-9.26,12.26,0,22.24,3.48,30.41,9.26Zm-44.95,19.47h29.45v-10.34c-4.21-3.01-9.01-4.33-14.78-4.33s-10.46,1.44-14.66,4.33v10.34Z"/>
    <path d="M435.17,126.63h-16.35v-62.02h14.3l1.2,7.21c6.73-6.13,14.54-9.01,22.84-9.01v14.54c-8.05,0-15.26,2.04-22,6.01v43.27Z"/>
    <path class="cls-1" d="M54.8,85.7v43.15h-16.47v-43.15h-11.42v-11.9l11.42-1.2v-18.87c7.81-5.89,17.19-9.01,26.2-9.01,6.13,0,10.94,.84,15.15,2.28v12.62c-3.73-1.08-7.57-1.68-11.54-1.68-5.53,0-10.1,1.44-13.34,3.73v10.94h24.64v13.1h-24.64Zm50.85-41.83v13.7h-17.79v-13.7h17.79Zm-17.07,84.98v-62.02h16.47v62.02h-16.47Z"/>
  </g>
</svg>