<?xml version="1.0" encoding="UTF-8"?>
<svg id="Laag_2" data-name="Laag 2" xmlns="http://www.w3.org/2000/svg" viewBox="0 0 144.51 172.73">
  <defs>
    <style>
      .cls-1 {
        fill: #fff;
      }
    </style>
  </defs>
  <g id="Laag_1-2" data-name="Laag 1">
    <path d="M79.03,0C50.24,0,22.58,9.6,0,26.53v124.74c19.76,13.55,44.03,21.45,72.25,21.45s52.5-7.9,72.25-21.45V21.44C126.44,6.77,104.43,0,79.03,0Z"/>
    <path class="cls-1" d="M54.8,85.7v43.15h-16.47v-43.15h-11.42v-11.9l11.42-1.2v-18.87c7.81-5.89,17.19-9.01,26.2-9.01,6.13,0,10.94,.84,15.15,2.28v12.62c-3.73-1.08-7.57-1.68-11.54-1.68-5.53,0-10.1,1.44-13.34,3.73v10.94h24.64v13.1h-24.64Zm50.85-41.83v13.7h-17.79v-13.7h17.79Zm-17.07,84.98v-62.02h16.47v62.02h-16.47Z"/>
  </g>
</svg>