<?xml version="1.0" encoding="UTF-8"?>
<svg id="Laag_2" data-name="Laag 2" xmlns="http://www.w3.org/2000/svg" viewBox="0 0 142.13 145.57">
  <defs>
    <style>
      .cls-1 {
        fill: #1d1d1b;
      }
    </style>
  </defs>
  <g id="Laag_1-2" data-name="Laag 1">
    <g>
      <path class="cls-1" d="M9.76,78.61c2.32,.22,4.38-1.49,4.59-3.81,2.12-22.74,17.71-41.86,39.06-48.81h0c2.79,7.02,9.64,11.98,17.65,11.98,10.49,0,18.99-8.5,18.99-18.99S81.55,0,71.06,0s-18.2,7.74-18.93,17.55C26.92,25.16,8.43,47.43,5.95,74.02c-.22,2.32,1.49,4.38,3.81,4.59Z"/>
      <path class="cls-1" d="M134.93,94.3c1.01-4.6,1.53-9.33,1.53-14.13,0-21.96-10.9-42.07-28.73-54.16-1.93-1.31-4.55-.81-5.86,1.12-1.31,1.93-.81,4.55,1.12,5.86,15.54,10.54,25.03,28.05,25.03,47.18,0,3.53-.32,7.02-.95,10.43h0c-7.83-1.66-16.17,1.78-20.38,9.09-5.24,9.08-2.13,20.69,6.95,25.94,9.08,5.24,20.69,2.13,25.94-6.95,4.77-8.26,2.62-18.63-4.65-24.37Z"/>
      <path class="cls-1" d="M96.36,131.22c-7.79,3.87-16.39,5.91-25.29,5.91-14.42,0-27.97-5.38-38.34-14.83,5.68-5.94,7.03-15.14,2.71-22.62-5.24-9.08-16.86-12.19-25.94-6.95C.42,97.98-2.7,109.59,2.55,118.67c4.67,8.1,14.41,11.45,22.9,8.37h0c12.1,11.78,28.32,18.53,45.62,18.53,10.21,0,20.09-2.34,29.05-6.79,2.09-1.04,2.94-3.57,1.9-5.66-1.04-2.09-3.57-2.94-5.66-1.9Z"/>
    </g>
  </g>
</svg>